<svg id="图层_1" data-name="图层 1" xmlns="http://www.w3.org/2000/svg" viewBox="0 0 524.19 333.96">
    <defs>
        <style>.cls-1{fill:#373c41;}</style>
    </defs>
    <path class="cls-1"
          d="M275.88,282.55,158.11,256.19a25.49,25.49,0,0,1-19.29-23.92c0-.34,0-130.26,0-130.59a25.51,25.51,0,0,1,19.29-23.93L275.88,51.39,288.52,0H151.27C103.13,0,64.08,40.05,63.89,89.55V244.39c.19,49.5,39.24,89.56,87.38,89.56H288.52Z"
          transform="translate(-63.89 0.01)"/>
    <path class="cls-1"
          d="M376.11,282.55l117.76-26.36a25.47,25.47,0,0,0,19.28-23.92c.06-.34.06-130.26,0-130.59a25.48,25.48,0,0,0-19.28-23.93L376.11,51.39,363.47,0H500.71c48.14,0,87.19,40.06,87.37,89.56V244.39c-.18,49.5-39.23,89.56-87.37,89.56H363.47Z"
          transform="translate(-63.89 0.01)"/>
    <rect class="cls-1" x="211.99" y="160.55" width="100.23" height="12.86"/>
</svg>