<svg enable-background="new 0 0 161.3 193.4" viewBox="0 0 161.3 193.4" xmlns="http://www.w3.org/2000/svg">
    <path d="m161.3 85.6-26.8-14.8-22.6 13.8-.3 14.1-11-7.2-14.9 9.1-.7-15.4-15.4-10.3 14.7-7.6c-.1 0 0 1.5-2.2-50.5l-34.7-16.8-47.4 14.7 10.6 50.9 15.9 12.3-12.1 5.7 7.9 38.4 11.1 10.4-7.9 4.8 6.2 29.7 24.9 26.4c.1-.1 2.6-2.1 32-25.5l-.9-20.2 12.6 10.7c.2-.2 2.7-2 25.8-20.4l.9-14.9 9.5 6.6c.2-.2 2.3-1.8 21-16.7z"
          fill="#221f1f"/>
    <path d="m136.6 129.7 2.5-28.2-27.2-16.9-.6 27.6z" fill="#065b32"/>
    <path d="m100.3 158.4v-29.3l-27.4-20.8 2.2 28.7z" fill="#065b32"/>
    <path d="m56.5 193.4-4.4-29.9-26.7-26.2 6.2 29.7z" fill="#065b32"/>
    <path d="m139 101.5 22.2-15.9-26.8-14.8-22.6 13.8zm-38.7 27.7 27.6-19.8-27.3-18-27.7 16.9zm-48.2 34.3 35.2-25.1-27.3-22.2-34.6 21.1zm-8-55.1 41-23.3-30.7-20.4-40.1 19zm-10.8-73 48.7-18.7-34.6-16.7-47.4 14.7z"
          fill="#231f20"/>
    <g fill="#00a762">
        <path d="m157.6 113.1c-20.6 16.4-21.1 16.7-21 16.7 2.6-29.6 2.3-28.2 2.5-28.2 23.5-16.8 22.1-15.9 22.2-15.9z"/>
        <path d="m126.2 138c-25.5 20.3-25.9 20.4-25.8 20.4-.3-30.6-.1-29.3 0-29.3 29.4-21 27.5-19.8 27.6-19.8z"/>
        <path d="m88.6 167.9c-31.9 25.3-32.1 25.5-32 25.5-4.5-30.8-4.4-29.9-4.4-29.9 37.5-26.7 35.1-25.1 35.2-25.1z"/>
        <path d="m82.1 16.7c2.2 52 2.1 50.5 2.2 50.5-42.1 21.9-43.1 22.3-43 22.3-8.1-55.3-8-54.1-7.9-54.1z"/>
        <path d="m85 85.2c1.7 39.4 1.5 38.1 1.6 38.1-36.4 24.4-36.8 24.7-36.7 24.7-5.9-40.6-5.9-39.5-5.8-39.5z"/>
    </g>
    <path d="m41.3 89.5-7.9-54.1-33.4-20.7 10.6 50.9z" fill="#065b32"/>
    <path d="m49.9 148-5.8-39.5-29.8-24.8 8 38.3z" fill="#065b32"/>
</svg>