<?xml version="1.0" encoding="utf-8"?>
<!-- Generator: Adobe Illustrator 25.0.1, SVG Export Plug-In . SVG Version: 6.00 Build 0)  -->
<svg version="1.1" id="Layer_1" xmlns="http://www.w3.org/2000/svg" xmlns:xlink="http://www.w3.org/1999/xlink" x="0px"
     y="0px"
     viewBox="0 0 300 309" style="enable-background:new 0 0 300 309;" xml:space="preserve">
<style type="text/css">
	.st0{fill:#00A1FF;}
	.st1{fill:#00C4D6;}
	.st2{fill:#006EFF;}
</style>
    <desc>Created with Sketch.</desc>
    <g id="Page-1">
	<g id="aws-cloud">
		<g id="Fill-10">
			<g id="tencent-cloud" transform="translate(47.000000, 73.000000)">
				<g transform="translate(31.000000, 0.000000)">
					<path class="st0" d="M202,71.8c-12.6-12.8-30-21-49.5-21c-16.8,0-31.2,5.9-44,16.1c-5.7,4.4-11.3,9.6-18.7,16.8
						C86.1,87.1-18.5,188.9-18.5,188.9c5.7,0.8,13,0.8,19.9,1c6.3,0,126.8,0,131.8,0c10.1,0,16.8,0,23.9-0.4
						c16.3-1.3,31.6-7.1,44-19.3C228.6,143.2,229,99.2,202,71.8 M181.9,150.8c-5.4,5.2-14.9,11.3-30.4,11.9
						c-7.3,0.2-15.7,0.2-19.7,0.2h-84c30.4-29.5,57.2-55.5,60.1-58.5c2.7-2.7,9-8.6,14.5-13.4c11.9-10.5,22.4-12.8,30-12.6
						c11.7,0.2,22.4,5,30.2,12.6C198.8,107.6,198.6,134.4,181.9,150.8"/>
                    <path class="st1" d="M33.1,65.3C20.7,56,6.9,50.8-8.6,50.8c-19.5,0-36.9,8-49.5,21c-26.8,27.5-26.6,71.5,1,98.5
						c11.1,10.9,24.5,16.8,38.8,18.9l26.8-26.2c-4.4,0-10.5-0.2-16.1-0.2c-15.7-0.4-25.1-6.5-30.4-11.9
						c-16.8-16.3-17.2-43.2-0.8-59.7c7.5-7.8,18.4-12.6,30.2-12.6c7.3,0,17.4,2.1,28.7,11.5c5.4,4.4,17.4,15.1,22.6,19.7
						c0.2,0.2,0.6,0.2,0.8,0l18.7-18.2c0.2-0.2,0.2-0.8,0-0.8C53.2,82,40.6,70.9,33.1,65.3"/>
                    <path class="st2" d="M159.9,35.3C146.9-1,112.3-27,71.8-27C25.1-27-13.5,7.2-20.4,51.6c3.8-0.6,7.5-0.8,11.5-0.8
						c5.7,0,10.9,0.6,15.7,1.9c0.2,0,0.2,0,0.2,0C13.4,22.7,40,0.3,71.6,0.3c26.4,0,49.5,15.9,59.9,38.4c0.2,0.2,0.4,0.4,0.8,0.4
						c8-2.1,17.2-3.4,26.4-2.7C159.7,36.5,159.9,36.1,159.9,35.3"/>
				</g>
			</g>
		</g>
	</g>
</g>
</svg>
